<?xml version="1.0" encoding="UTF-8" standalone="no"?>
<!DOCTYPE svg PUBLIC "-//W3C//DTD SVG 1.0//EN" "http://www.w3.org/TR/2001/PR-SVG-20010719/DTD/svg10.dtd">
<svg xmlns="http://www.w3.org/2000/svg" xmlns:xlink="http://www.w3.org/1999/xlink" width="22cm" height="18cm" viewBox="415 -24 437 351">
  <switch style="fill: #000000;text-anchor:start;font-size:12.8;font-family:sanserif;font-style:normal;font-weight:normal"><text style="fill: #000000;text-anchor:start;font-size:12.8;font-family:sanserif;font-style:normal;font-weight:normal" x="713" y="320" id="trsvg23">
    
  </text></switch>
  <switch style="fill: #000000;text-anchor:start;font-size:12.8;font-family:sanserif;font-style:normal;font-weight:normal"><text style="fill: #000000;text-anchor:start;font-size:12.8;font-family:sanserif;font-style:normal;font-weight:normal" x="473.5" y="42" id="trsvg24">
    
  </text></switch>
  <g>
    <rect style="fill: #ffffff" x="569.5" y="-23.375" width="110.6" height="44"/>
    <rect style="fill: none; fill-opacity:0; stroke-width: 1; stroke: #000000" x="569.5" y="-23.375" width="110.6" height="44"/>
    <switch style="fill: #000000;text-anchor:middle;font-size:12.8;font-family:sanserif;font-style:normal;font-weight:normal"><text style="fill: #000000;text-anchor:middle;font-size:12.8;font-family:sanserif;font-style:normal;font-weight:normal" x="624.8" y="2.525" id="trsvg25-ms" systemLanguage="ms">
      <tspan x="624.8" y="2.525" id="trsvg1-ms">Buat model</tspan>
    </text><text style="fill: #000000;text-anchor:middle;font-size:12.8;font-family:sanserif;font-style:normal;font-weight:normal" x="624.8" y="2.525" id="trsvg25">
      <tspan x="624.8" y="2.525" id="trsvg1">Make a model</tspan>
    </text></switch>
  </g>
  <switch style="fill: #000000;text-anchor:start;font-size:12.8;font-family:sanserif;font-style:normal;font-weight:normal"><text style="fill: #000000;text-anchor:start;font-size:12.8;font-family:sanserif;font-style:normal;font-weight:normal" x="747" y="43.125" id="trsvg26">
    
  </text></switch>
  <g>
    <path style="fill: #ffffff" d="M 442.937 -22.375 L 525.887,-22.375 C 537.341,-22.375 546.625,-13.0849 546.625,-1.625 C 546.625,9.83491 537.341,19.125 525.887,19.125 L 442.937,19.125 C 431.484,19.125 422.2,9.83491 422.2,-1.625 C 422.2,-13.0849 431.484,-22.375 442.937,-22.375z"/>
    <path style="fill: none; fill-opacity:0; stroke-width: 1; stroke: #000000" d="M 442.937 -22.375 L 525.887,-22.375 C 537.341,-22.375 546.625,-13.0849 546.625,-1.625 C 546.625,9.83491 537.341,19.125 525.887,19.125 L 442.937,19.125 C 431.484,19.125 422.2,9.83491 422.2,-1.625 C 422.2,-13.0849 431.484,-22.375 442.937,-22.375"/>
    <switch style="fill: #000000;text-anchor:middle;font-size:12.8;font-family:sanserif;font-style:normal;font-weight:normal"><text style="fill: #000000;text-anchor:middle;font-size:12.8;font-family:sanserif;font-style:normal;font-weight:normal" x="484.412" y="2.375" id="trsvg27-ms" systemLanguage="ms">
      <tspan x="484.412" y="2.375" id="trsvg2-ms">Sistem nyata</tspan>
    </text><text style="fill: #000000;text-anchor:middle;font-size:12.8;font-family:sanserif;font-style:normal;font-weight:normal" x="484.412" y="2.375" id="trsvg27">
      <tspan x="484.412" y="2.375" id="trsvg2">Real system</tspan>
    </text></switch>
  </g>
  <switch style="fill: #000000;text-anchor:start;font-size:12.8;font-family:sanserif;font-style:normal;font-weight:normal"><text style="fill: #000000;text-anchor:start;font-size:12.8;font-family:sanserif;font-style:normal;font-weight:normal" x="484.412" y="-1.625" id="trsvg28">
    
  </text></switch>
  <switch style="fill: #000000;text-anchor:start;font-size:12.8;font-family:sanserif;font-style:normal;font-weight:normal"><text style="fill: #000000;text-anchor:start;font-size:12.8;font-family:sanserif;font-style:normal;font-weight:normal" x="484.412" y="-1.625" id="trsvg29">
    
  </text></switch>
  <g>
    <path style="fill: #ffffff" d="M 723.15 -21.425 L 816.95,-21.425 C 829.901,-21.425 840.4,-12.1349 840.4,-0.675 C 840.4,10.7849 829.901,20.075 816.95,20.075 L 723.15,20.075 C 710.199,20.075 699.7,10.7849 699.7,-0.675 C 699.7,-12.1349 710.199,-21.425 723.15,-21.425z"/>
    <path style="fill: none; fill-opacity:0; stroke-width: 1; stroke: #000000" d="M 723.15 -21.425 L 816.95,-21.425 C 829.901,-21.425 840.4,-12.1349 840.4,-0.675 C 840.4,10.7849 829.901,20.075 816.95,20.075 L 723.15,20.075 C 710.199,20.075 699.7,10.7849 699.7,-0.675 C 699.7,-12.1349 710.199,-21.425 723.15,-21.425"/>
    <switch style="fill: #000000;text-anchor:middle;font-size:12.8;font-family:sanserif;font-style:normal;font-weight:normal"><text style="fill: #000000;text-anchor:middle;font-size:12.8;font-family:sanserif;font-style:normal;font-weight:normal" x="770.05" y="3.325" id="trsvg30-ms" systemLanguage="ms">
      <tspan x="770.05" y="3.325" id="trsvg3-ms">Sistem model</tspan>
    </text><text style="fill: #000000;text-anchor:middle;font-size:12.8;font-family:sanserif;font-style:normal;font-weight:normal" x="770.05" y="3.325" id="trsvg30">
      <tspan x="770.05" y="3.325" id="trsvg3">Model system</tspan>
    </text></switch>
  </g>
  <g>
    <rect style="fill: #ffffff" x="433.276" y="61.575" width="101.25" height="53"/>
    <rect style="fill: none; fill-opacity:0; stroke-width: 1; stroke: #000000" x="433.276" y="61.575" width="101.25" height="53"/>
    <switch style="fill: #000000;text-anchor:middle;font-size:12.8;font-family:sanserif;font-style:normal;font-weight:normal"><text style="fill: #000000;text-anchor:middle;font-size:12.8;font-family:sanserif;font-style:normal;font-weight:normal" x="483.901" y="83.975" id="trsvg31-ms" systemLanguage="ms"><tspan x="483.901" y="83.975" id="trsvg4-ms">Jalankan</tspan>
      <tspan x="483.901" y="99.975" id="trsvg5-ms">uji kaji</tspan>
    </text><text style="fill: #000000;text-anchor:middle;font-size:12.8;font-family:sanserif;font-style:normal;font-weight:normal" x="483.901" y="83.975" id="trsvg31"><tspan x="483.901" y="83.975" id="trsvg4">Perform </tspan>
      <tspan x="483.901" y="99.975" id="trsvg5">experiments</tspan>
    </text></switch>
  </g>
  <g>
    <rect style="fill: #ffffff" x="594.55" y="60.625" width="94.3" height="53"/>
    <rect style="fill: none; fill-opacity:0; stroke-width: 1; stroke: #000000" x="594.55" y="60.625" width="94.3" height="53"/>
    <switch style="fill: #000000;text-anchor:middle;font-size:12.8;font-family:sanserif;font-style:normal;font-weight:normal"><text style="fill: #000000;text-anchor:middle;font-size:12.8;font-family:sanserif;font-style:normal;font-weight:normal" x="641.7" y="83.025" id="trsvg32-ms" systemLanguage="ms"><tspan x="641.7" y="83.025" id="trsvg6-ms">Jalankan</tspan>
      <tspan x="641.7" y="99.025" id="trsvg7-ms">penyelakuan</tspan>
    </text><text style="fill: #000000;text-anchor:middle;font-size:12.8;font-family:sanserif;font-style:normal;font-weight:normal" x="641.7" y="83.025" id="trsvg32"><tspan x="641.7" y="83.025" id="trsvg6">Perform </tspan>
      <tspan x="641.7" y="99.025" id="trsvg7">simulations</tspan>
    </text></switch>
  </g>
  <g>
    <rect style="fill: #ffffff" x="743.05" y="54.8" width="101.9" height="69"/>
    <rect style="fill: none; fill-opacity:0; stroke-width: 1; stroke: #000000" x="743.05" y="54.8" width="101.9" height="69"/>
    <switch style="fill: #000000;text-anchor:middle;font-size:12.8;font-family:sanserif;font-style:normal;font-weight:normal"><text style="fill: #000000;text-anchor:middle;font-size:12.8;font-family:sanserif;font-style:normal;font-weight:normal" x="794" y="77.2" id="trsvg33-ms" systemLanguage="ms"><tspan x="794" y="77.2" id="trsvg8-ms">Bina</tspan><tspan x="794" y="93.2" id="trsvg9-ms">teori</tspan>
      <tspan x="794" y="109.2" id="trsvg10-ms">anggaran</tspan>
    </text><text style="fill: #000000;text-anchor:middle;font-size:12.8;font-family:sanserif;font-style:normal;font-weight:normal" x="794" y="77.2" id="trsvg33"><tspan x="794" y="77.2" id="trsvg8">Construct </tspan><tspan x="794" y="93.2" id="trsvg9">approximate</tspan>
      <tspan x="794" y="109.2" id="trsvg10">theories</tspan>
    </text></switch>
  </g>
  <g>
    <path style="fill: #ffffff" d="M 438.126 176.95 L 528.526,176.95 C 541.008,176.95 551.126,186.391 551.126,198.038 C 551.126,209.684 541.008,219.125 528.526,219.125 L 438.126,219.125 C 425.644,219.125 415.526,209.684 415.526,198.038 C 415.526,186.391 425.644,176.95 438.126,176.95z"/>
    <path style="fill: none; fill-opacity:0; stroke-width: 1; stroke: #000000" d="M 438.126 176.95 L 528.526,176.95 C 541.008,176.95 551.126,186.391 551.126,198.038 C 551.126,209.684 541.008,219.125 528.526,219.125 L 438.126,219.125 C 425.644,219.125 415.526,209.684 415.526,198.038 C 415.526,186.391 425.644,176.95 438.126,176.95"/>
    <switch style="fill: #000000;text-anchor:middle;font-size:12.8;font-family:sanserif;font-style:normal;font-weight:normal"><text style="fill: #000000;text-anchor:middle;font-size:12.8;font-family:sanserif;font-style:normal;font-weight:normal" x="483.326" y="194.037" id="trsvg34-ms" systemLanguage="ms"><tspan x="483.326" y="194.037" id="trsvg11-ms">Hasil</tspan>
      <tspan x="483.326" y="210.037" id="trsvg12-ms">uji kaji</tspan>
    </text><text style="fill: #000000;text-anchor:middle;font-size:12.8;font-family:sanserif;font-style:normal;font-weight:normal" x="483.326" y="194.037" id="trsvg34"><tspan x="483.326" y="194.037" id="trsvg11">Experimental</tspan>
      <tspan x="483.326" y="210.037" id="trsvg12">results</tspan>
    </text></switch>
  </g>
  <g>
    <path style="fill: #ffffff" d="M 604.714 177.45 L 677.863,177.45 C 687.963,177.45 696.151,186.74 696.151,198.2 C 696.151,209.66 687.963,218.95 677.863,218.95 L 604.714,218.95 C 594.614,218.95 586.426,209.66 586.426,198.2 C 586.426,186.74 594.614,177.45 604.714,177.45z"/>
    <path style="fill: none; fill-opacity:0; stroke-width: 1; stroke: #000000" d="M 604.714 177.45 L 677.863,177.45 C 687.963,177.45 696.151,186.74 696.151,198.2 C 696.151,209.66 687.963,218.95 677.863,218.95 L 604.714,218.95 C 594.614,218.95 586.426,209.66 586.426,198.2 C 586.426,186.74 594.614,177.45 604.714,177.45"/>
    <switch style="fill: #000000;text-anchor:middle;font-size:12.8;font-family:sanserif;font-style:normal;font-weight:normal"><text style="fill: #000000;text-anchor:middle;font-size:12.8;font-family:sanserif;font-style:normal;font-weight:normal" x="641.288" y="194.2" id="trsvg35-ms" systemLanguage="ms"><tspan x="641.288" y="194.2" id="trsvg13-ms">Hasil</tspan>
      <tspan x="641.288" y="210.2" id="trsvg14-ms">penyelakuan</tspan>
    </text><text style="fill: #000000;text-anchor:middle;font-size:12.8;font-family:sanserif;font-style:normal;font-weight:normal" x="641.288" y="194.2" id="trsvg35"><tspan x="641.288" y="194.2" id="trsvg13">Simulation</tspan>
      <tspan x="641.288" y="210.2" id="trsvg14">results</tspan>
    </text></switch>
  </g>
  <g>
    <path style="fill: #ffffff" d="M 755.025 176.95 L 831.525,176.95 C 842.087,176.95 850.65,186.24 850.65,197.7 C 850.65,209.16 842.087,218.45 831.525,218.45 L 755.025,218.45 C 744.463,218.45 735.9,209.16 735.9,197.7 C 735.9,186.24 744.463,176.95 755.025,176.95z"/>
    <path style="fill: none; fill-opacity:0; stroke-width: 1; stroke: #000000" d="M 755.025 176.95 L 831.525,176.95 C 842.087,176.95 850.65,186.24 850.65,197.7 C 850.65,209.16 842.087,218.45 831.525,218.45 L 755.025,218.45 C 744.463,218.45 735.9,209.16 735.9,197.7 C 735.9,186.24 744.463,176.95 755.025,176.95"/>
    <switch style="fill: #000000;text-anchor:middle;font-size:12.8;font-family:sanserif;font-style:normal;font-weight:normal"><text style="fill: #000000;text-anchor:middle;font-size:12.8;font-family:sanserif;font-style:normal;font-weight:normal" x="793.275" y="193.7" id="trsvg36-ms" systemLanguage="ms"><tspan x="793.275" y="193.7" id="trsvg15-ms">Ramalan</tspan>
      <tspan x="793.275" y="209.7" id="trsvg16-ms">teori</tspan>
    </text><text style="fill: #000000;text-anchor:middle;font-size:12.8;font-family:sanserif;font-style:normal;font-weight:normal" x="793.275" y="193.7" id="trsvg36"><tspan x="793.275" y="193.7" id="trsvg15">Theoretical</tspan>
      <tspan x="793.275" y="209.7" id="trsvg16">predictions</tspan>
    </text></switch>
  </g>
  <g>
    <rect style="fill: #ffffff" x="511.176" y="257.5" width="101.6" height="69"/>
    <rect style="fill: none; fill-opacity:0; stroke-width: 1; stroke: #000000" x="511.176" y="257.5" width="101.6" height="69"/>
    <switch style="fill: #000000;text-anchor:middle;font-size:12.8;font-family:sanserif;font-style:normal;font-weight:normal"><text style="fill: #000000;text-anchor:middle;font-size:12.8;font-family:sanserif;font-style:normal;font-weight:normal" x="561.976" y="279.9" id="trsvg37-ms" systemLanguage="ms"><tspan x="561.976" y="279.9" id="trsvg17-ms">Banding</tspan><tspan x="561.976" y="295.9" id="trsvg18-ms">dan baiki</tspan>
      <tspan x="561.976" y="311.9" id="trsvg19-ms">model</tspan>
    </text><text style="fill: #000000;text-anchor:middle;font-size:12.8;font-family:sanserif;font-style:normal;font-weight:normal" x="561.976" y="279.9" id="trsvg37"><tspan x="561.976" y="279.9" id="trsvg17">Compare </tspan><tspan x="561.976" y="295.9" id="trsvg18">and improve</tspan>
      <tspan x="561.976" y="311.9" id="trsvg19">model</tspan>
    </text></switch>
  </g>
  <g>
    <rect style="fill: #ffffff" x="669.176" y="257.5" width="105.65" height="69"/>
    <rect style="fill: none; fill-opacity:0; stroke-width: 1; stroke: #000000" x="669.176" y="257.5" width="105.65" height="69"/>
    <switch style="fill: #000000;text-anchor:middle;font-size:12.8;font-family:sanserif;font-style:normal;font-weight:normal"><text style="fill: #000000;text-anchor:middle;font-size:12.8;font-family:sanserif;font-style:normal;font-weight:normal" x="722.001" y="279.9" id="trsvg38-ms" systemLanguage="ms"><tspan x="722.001" y="279.9" id="trsvg20-ms">Banding</tspan><tspan x="722.001" y="295.9" id="trsvg21-ms">dan baiki</tspan>
      <tspan x="722.001" y="311.9" id="trsvg22-ms">teori</tspan>
    </text><text style="fill: #000000;text-anchor:middle;font-size:12.8;font-family:sanserif;font-style:normal;font-weight:normal" x="722.001" y="279.9" id="trsvg38"><tspan x="722.001" y="279.9" id="trsvg20">Compare </tspan><tspan x="722.001" y="295.9" id="trsvg21">and improve </tspan>
      <tspan x="722.001" y="311.9" id="trsvg22">theory</tspan>
    </text></switch>
  </g>
  <g>
    <line style="fill: none; fill-opacity:0; stroke-width: 1; stroke: #000000" x1="546.625" y1="-1.625" x2="560.882" y2="-1.46918"/>
    <polygon style="fill: #000000" points="568.382,-1.38722 558.328,3.5032 560.882,-1.46918 558.437,-6.4962 "/>
    <polygon style="fill: none; fill-opacity:0; stroke-width: 1; stroke: #000000" points="568.382,-1.38722 558.328,3.5032 560.882,-1.46918 558.437,-6.4962 "/>
  </g>
  <g>
    <line style="fill: none; fill-opacity:0; stroke-width: 1; stroke: #000000" x1="680.1" y1="-1.375" x2="691.087" y2="-0.982591"/>
    <polygon style="fill: #000000" points="698.583,-0.714904 688.411,3.92499 691.087,-0.982591 688.768,-6.06863 "/>
    <polygon style="fill: none; fill-opacity:0; stroke-width: 1; stroke: #000000" points="698.583,-0.714904 688.411,3.92499 691.087,-0.982591 688.768,-6.06863 "/>
  </g>
  <g>
    <line style="fill: none; fill-opacity:0; stroke-width: 1; stroke: #000000" x1="484.412" y1="19.125" x2="484.004" y2="52.9576"/>
    <polygon style="fill: #000000" points="483.913,60.457 479.035,50.3974 484.004,52.9576 489.034,50.5181 "/>
    <polygon style="fill: none; fill-opacity:0; stroke-width: 1; stroke: #000000" points="483.913,60.457 479.035,50.3974 484.004,52.9576 489.034,50.5181 "/>
  </g>
  <g>
    <line style="fill: none; fill-opacity:0; stroke-width: 1; stroke: #000000" x1="793.5" y1="20.075" x2="793.876" y2="46.1829"/>
    <polygon style="fill: #000000" points="793.984,53.6821 788.84,43.7551 793.876,46.1829 798.839,43.6111 "/>
    <polygon style="fill: none; fill-opacity:0; stroke-width: 1; stroke: #000000" points="793.984,53.6821 788.84,43.7551 793.876,46.1829 798.839,43.6111 "/>
  </g>
  <g>
    <line style="fill: none; fill-opacity:0; stroke-width: 1; stroke: #000000" x1="746.6" y1="20.075" x2="649.738" y2="57.5177"/>
    <polygon style="fill: #000000" points="642.743,60.2219 650.267,51.9526 649.738,57.5177 653.873,61.28 "/>
    <polygon style="fill: none; fill-opacity:0; stroke-width: 1; stroke: #000000" points="642.743,60.2219 650.267,51.9526 649.738,57.5177 653.873,61.28 "/>
  </g>
  <g>
    <line style="fill: none; fill-opacity:0; stroke-width: 1; stroke: #000000" x1="483.9" y1="114.575" x2="483.405" y2="168.332"/>
    <polygon style="fill: #000000" points="483.336,175.832 478.429,165.786 483.405,168.332 488.428,165.878 "/>
    <polygon style="fill: none; fill-opacity:0; stroke-width: 1; stroke: #000000" points="483.336,175.832 478.429,165.786 483.405,168.332 488.428,165.878 "/>
  </g>
  <g>
    <line style="fill: none; fill-opacity:0; stroke-width: 1; stroke: #000000" x1="641.7" y1="113.625" x2="641.344" y2="168.832"/>
    <polygon style="fill: #000000" points="641.295,176.332 636.36,166.3 641.344,168.832 646.36,166.364 "/>
    <polygon style="fill: none; fill-opacity:0; stroke-width: 1; stroke: #000000" points="641.295,176.332 636.36,166.3 641.344,168.832 646.36,166.364 "/>
  </g>
  <g>
    <line style="fill: none; fill-opacity:0; stroke-width: 1; stroke: #000000" x1="794" y1="123.8" x2="793.392" y2="168.333"/>
    <polygon style="fill: #000000" points="793.289,175.832 788.426,165.765 793.392,168.333 798.425,165.901 "/>
    <polygon style="fill: none; fill-opacity:0; stroke-width: 1; stroke: #000000" points="793.289,175.832 788.426,165.765 793.392,168.333 798.425,165.901 "/>
  </g>
  <g>
    <line style="fill: none; fill-opacity:0; stroke-width: 1; stroke: #000000" x1="528.526" y1="219.126" x2="534.807" y2="249.066"/>
    <polygon style="fill: #000000" points="536.346,256.406 529.4,247.645 534.807,249.066 539.187,245.592 "/>
    <polygon style="fill: none; fill-opacity:0; stroke-width: 1; stroke: #000000" points="536.346,256.406 529.4,247.645 534.807,249.066 539.187,245.592 "/>
  </g>
  <g>
    <line style="fill: none; fill-opacity:0; stroke-width: 1; stroke: #000000" x1="623" y1="218.95" x2="593.225" y2="251.171"/>
    <polygon style="fill: #000000" points="588.135,256.679 591.249,245.941 593.225,251.171 598.594,252.728 "/>
    <polygon style="fill: none; fill-opacity:0; stroke-width: 1; stroke: #000000" points="588.135,256.679 591.249,245.941 593.225,251.171 598.594,252.728 "/>
  </g>
  <g>
    <line style="fill: none; fill-opacity:0; stroke-width: 1; stroke: #000000" x1="793.274" y1="218.45" x2="754.912" y2="251.842"/>
    <polygon style="fill: #000000" points="749.255,256.766 753.515,246.429 754.912,251.842 760.081,253.972 "/>
    <polygon style="fill: none; fill-opacity:0; stroke-width: 1; stroke: #000000" points="749.255,256.766 753.515,246.429 754.912,251.842 760.081,253.972 "/>
  </g>
  <g>
    <line style="fill: none; fill-opacity:0; stroke-width: 1; stroke: #000000" x1="659.576" y1="218.95" x2="714.667" y2="252.972"/>
    <polygon style="fill: #000000" points="721.049,256.913 709.913,255.912 714.667,252.972 715.168,247.404 "/>
    <polygon style="fill: none; fill-opacity:0; stroke-width: 1; stroke: #000000" points="721.049,256.913 709.913,255.912 714.667,252.972 715.168,247.404 "/>
  </g>
  <switch style="fill: #000000;text-anchor:start;font-size:12.8;font-family:sanserif;font-style:normal;font-weight:normal"><text style="fill: #000000;text-anchor:start;font-size:12.8;font-family:sanserif;font-style:normal;font-weight:normal" x="484.412" y="-1.625" id="trsvg39">
    
  </text></switch>
  <switch style="fill: #000000;text-anchor:start;font-size:12.8;font-family:sanserif;font-style:normal;font-weight:normal"><text style="fill: #000000;text-anchor:start;font-size:12.8;font-family:sanserif;font-style:normal;font-weight:normal" x="770.05" y="-0.675" id="trsvg40">
    
  </text></switch>
  <switch style="fill: #000000;text-anchor:start;font-size:12.8;font-family:sanserif;font-style:normal;font-weight:normal"><text style="fill: #000000;text-anchor:start;font-size:12.8;font-family:sanserif;font-style:normal;font-weight:normal" x="484.412" y="-1.625" id="trsvg41">
    
  </text></switch>
  <g>
    <line style="fill: none; fill-opacity:0; stroke-width: 1; stroke: #000000" x1="544.506" y1="212.948" x2="687.322" y2="255.062"/>
    <polygon style="fill: #000000" points="694.516,257.184 683.51,259.151 687.322,255.062 686.339,249.56 "/>
    <polygon style="fill: none; fill-opacity:0; stroke-width: 1; stroke: #000000" points="694.516,257.184 683.51,259.151 687.322,255.062 686.339,249.56 "/>
  </g>
  <switch style="fill: #000000;text-anchor:start;font-size:12.7998;font-family:sanserif;font-style:normal;font-weight:normal"><text style="fill: #000000;text-anchor:start;font-size:12.7998;font-family:sanserif;font-style:normal;font-weight:normal" x="484.412" y="-1.625" id="trsvg42">
    
  </text></switch>
</svg>
